<svg xmlns="http://www.w3.org/2000/svg" xmlns:sodipodi="http://sodipodi.sourceforge.net/DTD/sodipodi-0.dtd"
     xmlns:inkscape="http://www.inkscape.org/namespaces/inkscape" height="100" width="100"
     inkscape:version="0.92.3 (2405546, 2018-03-11)" sodipodi:docname="favicon.svg" viewBox="0 0 100 100"
     style="display:block" id="svg"><defs id="defs97"/><sodipodi:namedview inkscape:current-layer="svg" inkscape:window-maximized="1" inkscape:window-y="30" inkscape:window-x="0" inkscape:cy="55.054136" inkscape:cx="37.367712" inkscape:zoom="2.6700352" showgrid="false" id="namedview95" inkscape:window-height="705" inkscape:window-width="1366" inkscape:pageshadow="2" inkscape:pageopacity="0" guidetolerance="10" gridtolerance="10" objecttolerance="10" borderopacity="1" bordercolor="#666666" pagecolor="#ffffff"/><rect style="display:block;fill:#415564;fill-opacity:1;stroke-width:1.00001323" id="rect815" width="100" height="100" x="0" y="0" rx="10" ry="10"/><g id="g1025" transform="matrix(0.12925877,0,0,0.12925877,-11.19136,-14.969113)" style="fill:#fff;fill-opacity:1"><path id="path4" style="display:block;fill:#fff;fill-opacity:1" d="m539.402 467.10132c3.10705 18.68169 5.78927 37.01518 6 56 .66.0 1.32.0 2 0 .267-.59006.53399-1.18013.80908-1.78808 7.73543-14.36716 24.66451-24.56423 39.64795-29.30176 21.39292-5.49565 45.07442-.80868 65.52344 6.39355 2.13037.73451 4.27437 1.40889 6.42578 2.07911 21.18121 6.78018 41.52093 17.2636 60.59375 28.61718-4.26199 14.27988-13.89132 26.47129-23 38-1.10795 1.42893-1.10795 1.42893-2.23828 2.88672-4.51754 5.69158-9.37832 11.04508-14.32422 16.36328-.92003.9929-.92003.9929-1.85864 2.00586-4.28631 4.5541-8.80551 8.70701-13.57886 12.74414-.9193.78649-.9193.78649-1.85718 1.58887-28.15831 23.92383-58.72228 40.11609-96.38647 38.64209-9.21049-.77176-17.28401-5.00032-24.75635-10.23096.0374 1.26199.0748 2.52398.11328 3.82422-.003 5.46842-.90873 10.62943-1.92578 15.98828-.37179 2.0387-.74155 4.07777-1.10938 6.11719-.18369 1.01675-.36738 2.03349-.55664 3.08105-.7787 4.46372-1.43702 8.94236-2.08398 13.42676-1.24531 8.56942-2.7645 17.06697-4.4375 25.5625.59684-.4125 1.19367-.825 1.80859-1.25 12.44788-8.28626 25.62964-14.25382 40.19141-17.75 1.14727-.28617 2.29453-.57234 3.47656-.86719 18.607-4.49134 36.12148-4.34507 54.52344.86719.70383.19304 1.40766.38607 2.13281.58496 20.99606 5.89788 40.73845 16.44356 58.86719 28.41504 1.04124.68643 1.04124.68643 2.10352 1.38672 16.17732 10.74475 31.23377 22.84087 45.95898 35.48828.65597.55986 1.31194 1.11971 1.98779 1.69653.92064.79604.92064.79604 1.85987 1.60816.82189.70745.82189.70745 1.6604 1.4292 1.42944 1.39111 1.42944 1.39111 3.42944 4.39111-.62394.002-1.24787.005-1.89072.007-15.28789.0595-30.57562.13531-45.86334.22847-7.39349.0447-14.78693.0842-22.18051.11073-6.45554.0232-12.91094.0569-19.36636.10226-3.40786.0236-6.81558.0426-10.22352.0489-29.39517.0751-55.29176 4.30485-83.04418 13.68101-40.13093 13.55125-40.13093 13.55125-54.43137 6.82163-.11392.6795-.22784 1.35899-.34522 2.05908-1.10984 6.3863-2.55211 12.57283-4.27978 18.81592-3.27232 12.14769-5.89245 24.42115-8.48291 36.72803-2.08204 9.85889-4.37605 19.63962-6.89209 29.39697-7.09274-.60959-14.01304-1.63183-21-3-1.3912-3.82476-.63606-6.7723.20703-10.6875.13904-.65646.27809-1.31291.42134-1.98926.44905-2.10959.9103-4.21631 1.37163-6.32324.29166-1.36571.58252-2.7316.87256-4.09766.91857-4.30518 1.86273-8.60448 2.81494-12.90234.16936-.7656.33872-1.5312.51321-2.32001 2.54983-11.48648 5.28753-22.91455 8.23679-34.30499.17317-.67047.34633-1.34095.52475-2.03174 2.8346-10.93696 2.8346-10.93696 4.03775-13.34326-1.27617.43313-1.27617.43313-2.57813.875-17.79789 5.45297-34.89766 3.9664-52.42187-1.875-3.59292 16.65944-3.59292 16.65944-6.5625 33.4375-1.35711 8.64689-3.34843 17.06213-5.4375 25.5625-10.89-1.98-10.89-1.98-22-4 1.12127-10.09144 1.12127-10.09144 2.05078-14.39844.20214-.96124.40428-1.92247.61255-2.91284.32134-1.51654.32134-1.51654.64917-3.06372 1.93625-9.4019 3.58989-18.81735 5-28.3125.1712-1.13937.34241-2.27874.5188-3.45264 1.11136-7.3982 1.11136-7.3982 1.1687-14.85986-2.24025-2.42738-2.24025-2.42738-5.25-4.3125-.97453-.67676-1.94906-1.35352-2.95312-2.05078-3.02387-1.76955-5.19502-2.90941-8.7129-2.31055-.98516.31808-.98516.31808-1.99023.64258-.7371.23703-1.4742.47405-2.23364.71826-33.13093 11.41264-61.79046 39.5515-87.34839 63.02002-2.90997 2.65654-5.87161 5.24736-8.85547 7.82031-1.69239 1.46119-1.69239 1.46119-3.25 3.16407-1.40625 1.30859-1.40625 1.30859-3.40625 1.30859-1.05949-57.77481-1.05949-57.77481 5-86 .35246-1.82094.7017-3.64251 1.04688-5.46484 1.80647-9.08266 4.55211-16.69254 7.95312-25.53516-34.98.0-69.96.0-106 0 3.45779-4.14935 5.87881-6.93558 9.9375-10.125 3.71885-2.96517 7.3495-5.98229 10.91748-9.12671 30.57847-26.83158 77.55992-59.74829 120.14502-59.74829-.26216-1.09353-.52433-2.18706-.79443-3.31372-.98332-4.10508-1.96268-8.21109-2.94092-12.31738-.4218-1.76816-.84462-3.53607-1.26856-5.30371-6.1453-25.63199-6.1453-25.63199-5.99609-33.06519 14.49034 1.71171 28.74502 3.88631 43 7 .90138.19352 1.80275.38704 2.73145.58643 12.25537 2.64076 24.29893 5.68299 36.26855 9.41357-.43312-1.55461-.43312-1.55461-.875-3.14062-.37527-1.36972-.75025-2.73952-1.125-4.10938-.19078-.68191-.38156-1.36383-.57812-2.06641-.92145-3.3896-1.42188-6.14138-1.42188-9.68359 2.53958-.67561 5.08119-1.34066 7.625-2 .71285-.19078 1.4257-.38156 2.16016-.57812 4.17333-1.07205 7.86663-1.64135 12.21484-1.42188 2.6139 8.61128 4.69706 17.054 6.19141 25.91797.85026 3.24088 1.3239 4.0139 3.80859 6.08203 1.85413.94627 1.85413.94627 3.92969 1.65625 1.17756.44171 1.17756.44171 2.3789.89233.84692.31397 1.69383.62794 2.56641.95142 28.83342 11.14762 55.2359 27.82675 69.125 56.5 2.55357-10.60492 4.07773-21.20494 5.36255-32.02393.32622-2.73673.66576-5.47159 1.00659-8.20654.21499-1.77204.42921-3.54417.64258-5.31641.1-.80129.19991-1.60258.3029-2.42816.90995-7.79827 1.07108-15.28197-.31462-23.02496-.11679-2.59655-.185-5.1545-.1875-7.75-.0142-1.31484-.0284-2.62969-.043-3.98437.0757-3.12293.54159-5.969 1.22266-9.01563 1.2495-5.84997 1.34989-11.53344 1.32031-17.5-.004-1.19383-.008-2.38766-.0127-3.61767-.32057-26.84329-3.35831-53.60479-7.2998-80.13233 2.89503-.50505 5.79088-1.0042 8.6875-1.5.81662-.14308 1.63324-.28617 2.47461-.43359.79599-.13535 1.59199-.2707 2.41211-.41016 1.09187-.18852 1.09187-.18852 2.20581-.38086 2.42625-.30098 4.77757-.32044 7.21997-.27539zm24 70c-10.30614 12.23735-20.0812 30.78206-19 47 2.39347-2.37673 4.77215-4.75673 7.07812-7.21875 19.31966-20.29259 43.4017-33.78085 70.92188-38.78125 1.65-.33 3.3-.66 5-1 .99 7.59 1.98 15.18 3 23-1.71188.0825-3.42375.165-5.1875.25-17.49505 1.5533-33.83416 10.14611-46.8125 21.75-.80438.67418-1.60875 1.34836-2.4375 2.04297-8.05834 6.91254-16.63029 15.44134-21.5625 24.95703.60986 3.35422 2.22041 4.15612 5 6.125 11.46648 6.00513 25.1113 4.83071 37.08984 1.1875 18.0582-5.88844 34.75694-15.67166 48.91016-28.3125.8598-.76313 1.71961-1.52625 2.60547-2.3125 1.69619-1.51913 3.38526-3.04627 5.06641-4.58203 2.05242-1.85614 4.14658-3.63918 6.26562-5.41797 8.34787-7.32943 15.35693-15.85768 22.125-24.625.84051-1.08257.84051-1.08257 1.698-2.18701 2.65392-3.49529 4.90325-6.63434 6.2395-10.87549-42.25157-22.18797-89.68368-40.85725-126-1zm-208 68c.59811 7.70171 2.35771 14.82196 4.4375 22.25.35127 1.25982.70254 2.51963 1.06445 3.81763 5.68595 20.12303 12.2382 40.14884 21.49805 58.93237.39188.80147.78375 1.60295 1.1875 2.42871 4.7326 9.58722 9.44547 18.71484 16.8125 26.57129.45182.49661.90363.99322 1.36914 1.50488 16.64203 18.17973 38.09784 30.96422 62.98242 32.7334 10.88727.26185 20.5796-2.09324 29.5-8.58594 1.37085-1.62873 1.37085-1.62873 1.10938-3.92968-1.23922-3.51111-3.14924-6.31292-5.33594-9.28516-.44481-.61206-.88961-1.22413-1.3479-1.85474-4.65785-6.28772-9.84285-11.96481-15.2771-17.58276-.87398-.92555-1.74797-1.85109-2.64844-2.80469-6.3848-6.60949-13.20557-12.31505-20.53222-17.8247-1.79094-1.34922-3.56699-2.71639-5.34278-4.08545-14.4926-11.03586-30.34405-19.89626-46.47656-28.28516 2.97-6.27 5.94-12.54 9-19 14.59679 5.83872 28.05178 14.16014 41 23 .62246.42281 1.24491.84562 1.88623 1.28125 8.84618 6.04705 17.03913 12.68353 25.11377 19.71875.70383.59168 1.40766 1.18336 2.13281 1.79297 9.35691 7.92792 18.07421 16.69487 25.47656 26.47656.45891.57106.91782 1.14211 1.39063 1.73047.33.0.66.0 1 0 1.78536-20.63083-9.15924-41.56332-22-57-7.75993-9.15203-16.40103-15.46232-27-21-1.12535-.59168-2.2507-1.18336-3.41016-1.79297-25.80318-12.7125-54.21426-19.74887-82.02734-26.51953-1.08442-.26667-2.16885-.53335-3.28613-.80811-1.01804-.24508-2.03608-.49016-3.08496-.74267-.90549-.21954-1.81098-.43909-2.7439-.66528-2.68673-.59753-2.68673-.59753-6.44751-.47144zm-39 53c-1.23105.4009-2.46211.8018-3.73047 1.21484-18.20203 6.25615-35.65797 15.56306-51.26953 26.78516.0.33.0.66.0 1 .56946.0103 1.13893.0206 1.72565.0312 6.037.10991 12.0739.22431 18.11078.34108 2.23988.0428 4.47979.0845 6.71972.125 40.40771.73354 40.40771.73354 52.56885 2.94019 1.16463.19686 1.16463.19686 2.35278.39771 5.52904.94689 11.03582 1.99556 16.52222 3.16479-2.38573-7.27994-4.95173-14.48553-7.5625-21.6875-.79364-2.19116-1.58663-4.38256-2.37891-6.57422-.34748-.95866-.69496-1.91732-1.05297-2.90503-1.04076-2.93226-2.03089-5.87846-3.00562-8.83325-10.42234-.57813-19.07332.73007-29 4zm277.99219 41.06641c-21.65141 1.02629-44.6219 11.73759-59.42969 27.37109-6.06935 7.20735-9.73741 14.86998-9.625 24.3125.009.98484.0181 1.96969.0273 2.98437.0116.74766.0232 1.49532.0352 2.26563 12.30767.98461 24.87983-4.88998 36.44543-8.71829 20.53608-6.77645 40.6149-12.72061 62.35144-13.79343 1.28606-.0637 1.28606-.0637 2.59809-.12865 11.612-.53969 23.23333-.7164 34.85504-.92213 2.31771-.0433 4.63542-.087 6.95312-.13086 5.59891-.10546 11.19786-.20748 16.79688-.30664-2.49627-2.62714-4.84779-4.70334-7.98438-6.51563-.76239-.44263-1.52479-.88526-2.3103-1.3413-.81025-.45972-1.62051-.91943-2.45532-1.39307-.84184-.48163-1.68368-.96325-2.55103-1.45947-7.75667-4.39713-15.62751-8.50317-23.69897-12.29053-.99902-.47051-1.99805-.94102-3.02734-1.42578-16.59377-7.35225-31.08947-8.90281-48.98047-8.50781zM327.402 711.10132c-7.49276 11.71716-10.23801 25.33295-12.60937 38.83105-.3269 1.81508-.69732 3.62223-1.07813 5.42676-1.45626 6.93747-1.51491 13.66912-1.3125 20.74219 4.4754-2.47593 8.21736-5.55119 12.125-8.8125 17.50507-14.4034 35.19096-26.8518 55.875-36.1875-1.89298-4.25921-3.7905-7.98682-8.19141-10.00488-2.74898-.96505-5.50965-1.81138-8.30859-2.62012-.99379-.29922-1.98757-.59845-3.01147-.90674-2.82426-.84231-5.65465-1.65904-8.48853-2.46826-1.20785-.35578-2.4157-.71156-3.66016-1.07813-7.05613-1.93734-14.04247-2.58054-21.33984-2.92187z" inkscape:connector-curvature="0"/><path id="path6" style="display:block;fill:#fff;fill-opacity:1" d="m510.5895 147.78882c8.11739 6.6743 13.74549 13.64237 14.8125 24.3125 1.27875.18563 2.5575.37125 3.875.5625 8.78455 1.98896 15.5525 7.85752 20.71875 15.0586 4.75028 8.03588 5.55371 16.92443 3.9375 26.01562-2.23307 8.67975-7.02459 14.62098-14.11328 19.94141-1.72009 1.72482-2.02785 3.05073-2.41797 5.42187.60586.0632 1.21172.12633 1.83594.19141 8.98122 1.31264 15.78365 5.53063 21.53906 12.55859 5.13783 7.54619 7.21825 15.203 6.625 24.25.61746.14695 1.23492.29391 1.87109.44531 10.61448 2.81114 18.66164 8.17882 24.38282 17.625 4.06307 8.35266 4.48002 19.13025 1.82812 28-1.18233 2.50242-2.47922 4.67641-4.08203 6.92969-.43441.64195-.86883 1.28391-1.31641 1.94531-3.85409 5.07291-9.00928 8.26856-14.68359 11.05469-.66.0-1.32.0-2 0 0 1.32.0 2.64.0 4 .825.20625 1.65.4125 2.5.625 8.89531 3.49459 15.35698 10.32212 19.375 18.9375 2.93534 8.92907 2.08684 19.44675-1.55859 28.00781-4.22467 7.79746-10.38621 12.60232-18.31641 16.42969-.66.0-1.32.0-2 0 .0619 1.29937.12375 2.59875.1875 3.9375-.0587 9.38491-3.69152 16.37768-10.1875 23.0625-8.07785 6.76593-16.50246 9.6364-27.00391 9.35547-7.18381-.85232-13.24428-4.11729-18.99609-8.35547-2.15293 1.07148-4.29901 2.15382-6.4375 3.25391-.84562.43183-1.69125.86367-2.5625 1.30859-.84562.43441-1.69125.86883-2.5625 1.31641-7.49762 3.44842-16.28468 3.11762-24.0625.68359-8.88632-3.63414-16.32759-10.84371-20.375-19.5625-3.07048-7.89081-3.74655-16.83064-.71484-24.84375 4.15515-9.42175 10.07101-16.25279 19.71484-20.15625.66.0 1.32.0 2 0-.22806-1.95703-.22806-1.95703-1-4-1.90533-.93595-3.81406-1.86586-5.74219-2.75391-7.55472-4.16947-13.18505-11.94705-15.85937-20.07422-2.20515-12.02019.1411-21.05497 6.90234-31.10546 2.72443-3.55862 5.91912-5.78077 9.69922-8.06641-1.65407-1.10271-3.3174-2.19315-5.01563-3.22656-8.40587-5.26102-14.28489-11.10321-17.3125-20.73047-2.31591-10.48893-.8814-18.66932 4.2461-27.95313 2.77171-4.11336 5.82825-7.48868 10.08203-10.08984.66.0 1.32.0 2 0-.10686-1.96504-.10686-1.96504-1-4-2.27382-1.1521-2.27382-1.1521-5.0625-1.875-9.95184-3.32587-16.2141-9.2795-21.19531-18.4375-3.61987-7.89788-4.01795-16.08515-1.61719-24.4375 2.42495-6.26635 6.06094-11.11064 11.6875-14.75 2.85918-2.27236 3.16899-3.37347 3.71094-7.07812.11225-2.10611.16479-4.20782.20752-6.31641.22407-9.45035 3.68368-17.30059 10.26904-24.10547 13.50745-11.23921 27.98781-11.35939 43.1875-3.3125zm-29.1875 21.3125c-2.33693 3.74066-2.25325 6.53969-1.68359 10.8086 1.17736 3.77429 3.42935 5.06619 6.68359 7.1914 2.86608 1.43304 4.81301 1.30645 8 1 3.65782-2.03994 5.66946-3.50419 8-7 .68344-3.77689.85107-7.47187-1.05078-10.88672-1.76945-2.15569-3.44089-3.85911-5.94922-5.11328-6.0684-.5057-9.19156-.12151-14 4zm37.35156 26.64453c-.85465 1.07315-.85465 1.07315-1.72656 2.16797-2.61788 3.14035-4.88963 5.37642-8.625 7.1875.28001 4.0135.75764 5.72035 3.4375 8.8125 2.9152 2.61 2.9152 2.61 6.55078 3.20703 5.16009-.45963 8.25784-1.14834 12.01172-5.01953 1.73125-3.4625 1.47815-7.21408 1-11-2.08642-3.5022-4.13406-5.62821-8-7-3.03411-.35313-3.03411-.35313-4.64844 1.64453zM465.652 206.60132c-2.37022 3.12104-2.99254 5.6443-2.74609 9.53516.90741 3.59394 2.83187 5.42454 5.49609 7.96484 3.729 1.243 7.13349 1.67117 11 1 3.02392-1.73907 5.41749-3.83497 7-7 .0689-1.37342.0847-2.75002.0625-4.125-.0206-1.27875-.0412-2.5575-.0625-3.875-1.19625-.43312-2.3925-.86625-3.625-1.3125-2.67837-.99374-5.07617-2.05157-7.625-3.375-4.25231-2.02951-5.98714-2.00601-9.5 1.1875zm28.60547 34.33985c-2.14033 2.09673-2.14033 2.09673-2.29297 5.34765 1.84474 3.60928 3.80866 6.02832 7.4375 7.8125 3.89558.86259 7.34289.93903 10.875-1.0625 2.1729-1.75504 3.86923-3.42596 5.125-5.9375.0689-1.37342.0847-2.75002.0625-4.125-.0206-1.27875-.0412-2.5575-.0625-3.875-1.76859-.6726-3.53996-1.33788-5.3125-2-.98613-.37125-1.97227-.7425-2.98828-1.125-6.11521-1.98235-8.47876.92741-12.84375 4.96485zm36.46094 21.80468c-.86819 1.07315-.86819 1.07315-1.75391 2.16797-2.31918 2.84838-4.54302 5.08382-7.5625 7.1875.28001 4.0135.75764 5.72035 3.4375 8.8125 3.29408 2.81202 4.65253 3.38894 8.875 3.0625 3.70237-.44715 4.64846-.84328 7.6875-3.3125 3.1646-4.05465 3.43077-6.39329 3-11.5625-1.80272-3.53867-3.0469-5.48858-6.5625-7.375-3.91982-1.06958-3.91982-1.06958-7.12109 1.01953zm-48.31641 7.35547c-4.42789 3.13294-4.42789 3.13294-6.27344 7.95312-.18985 4.2936-.16083 7.14271 2.64844 10.54688 3.05319 2.9078 3.71214 3.42978 7.875 3.75 4.14389-.27626 6.32707-.91618 9.75-3.25 2.57181-3.65031 3.04895-5.39303 2.6875-9.875-.34031-1.54688-.34031-1.54688-.6875-3.125-.65227-.18176-1.30453-.36352-1.97656-.55078-4.95074-1.42389-9.4889-2.94329-14.02344-5.44922zm70 33c-1.89228 3.78456-1.74633 7.89831-1 12 1.83409 2.93224 3.87951 4.53959 7 6 4.63149 1.00993 7.85711.68087 11.9375-1.75 2.84456-3.10316 3.8916-4.93974 4.4375-9.125-.47639-3.96988-1.9054-6.02037-4.375-9.125-6.19388-4.12926-12.47213-2.69869-18 2zm-41.5 1.3125c-.825.88687-1.65 1.77375-2.5 2.6875-1.31176 1.02814-2.63699 2.04084-4 3 1.20728 4.42671 2.47558 7.02627 6 10 3.21732 1.60866 6.51076 1.46696 10 1 3.48092-1.74046 5.42071-3.04291 7.4375-6.375.75926-3.54322 1.00546-5.23404-.4375-8.625-5.15419-3.02913-11.60417-6.21614-16.5-1.6875zm-27.5 32.6875c-1.74222 3.48443-1.58675 7.19887-1 11 1.70252 3.0747 3.81227 5.40613 7 7 4.77256.39771 7.08483.47453 11.375-1.75 3.28996-2.81996 4.37239-4.44108 4.96484-8.68359-.064-2.73759-.064-2.73759-2.42187-4.26172-.90106-.4718-1.80211-.9436-2.73047-1.42969-4.97355-2.65543-4.97355-2.65543-6.82422-4.55469-3.58107-3.4682-7.21501.35271-10.36328 2.67969zm55-2c-2.46558 1.77183-2.46558 1.77183-5 4-.92813.43312-1.85625.86625-2.8125 1.3125-2.53401 1.58416-2.53401 1.58416-2.9375 5 .89793 4.41482 2.15782 5.92524 5.68359 8.58203 3.67856 1.96793 5.92764 1.76242 10.06641 1.10547 3.19162-1.65492 5.29279-3.00347 7.375-5.9375.78445-2.5887.98102-4.36572.625-7.0625-2.07735-1.88333-2.07735-1.88333-4.8125-3.25-1.33998-.75023-1.33998-.75023-2.70703-1.51563-2.51424-1.32315-2.51424-1.32315-5.48047-2.23437zm19.9375 36.49609c-2.18129 1.69314-4.30578 2.6815-6.9375 3.50391-.71978 5.22075-.71978 5.22075 1.27734 9.86719 3.00286 2.84624 5.59934 4.51586 9.78516 4.75781 4.40948-.69992 6.5987-1.68368 9.9375-4.625 1.92694-3.09986 2.00601-4.83175 1.875-8.5-.97004-3.88018-1.97686-5.76287-4.875-8.5-4.78653-2.52622-7.37072.48254-11.0625 3.49609zm-42.9375-2.49609c-1.69672 1.29487-3.36033 2.63361-5 4-2.8125 1.25-2.8125 1.25-5 2-.4873 4.559-.4873 4.559 1.04297 8.76562 1.79561 2.16948 3.41847 3.9651 5.95703 5.23438 4.77256.39771 7.08483.47453 11.375-1.75 3.28664-2.81712 4.37112-4.43785 4.96484-8.67578-.0693-2.74539-.0693-2.74539-2.42187-4.33985-1.35158-.73476-1.35158-.73476-2.73047-1.48437-1.33998-.75023-1.33998-.75023-2.70703-1.51563-2.51424-1.32315-2.51424-1.32315-5.48047-2.23437zm-32 36c-1.89111 3.78222-1.75206 7.90126-1 12 2.23666 3.47773 5.01195 5.51157 9.03516 6.5 5.04672.31117 8.25514-1.23193 11.96484-4.5 1.5913-2.69829 1.97334-4.45354 2.125-7.5625-1.57397-3.41028-3.78041-3.99468-7.12891-5.45703-2.49456-1.22531-4.04659-3.03097-5.99609-4.98047-4.70069.0-5.64349.91564-9 4zm55-2c-1.69672 1.29487-3.36033 2.63361-5 4-2.8125 1.25-2.8125 1.25-5 2-.71978 5.22075-.71978 5.22075 1.27734 9.86719 3.00286 2.84624 5.59934 4.51586 9.78516 4.75781 4.38494-.69602 6.58282-1.74956 9.9375-4.625 2.1026-2.96276 2.47393-5.41011 2-9-2.07735-1.88333-2.07735-1.88333-4.8125-3.25-1.33998-.75023-1.33998-.75023-2.70703-1.51563-2.51424-1.32315-2.51424-1.32315-5.48047-2.23437z" inkscape:connector-curvature="0"/><path id="path8" style="display:block;fill:#fff;fill-opacity:1" d="m370.402 259.10132c.69609.43571 1.39219.87141 2.10937 1.32032 7.6321 5.25065 12.24276 11.85345 14.89063 20.67968.0 1.32.0 2.64.0 4 1.155.0619 2.31.12375 3.5.1875 5.04797.62542 8.44148 2.88476 12.5 5.8125.86625.55688 1.7325 1.11375 2.625 1.6875 7.50055 7.30317 10.33457 16.00941 10.75 26.1875-.27052 11.33349-5.33984 18.43019-13.375 26.125-.99.66-1.98 1.32-3 2-.72383 2.05925-.72383 2.05925-1 4 .83531.12955.83531.12955 1.6875.26172 9.25326 1.70373 16.46398 6.33869 22.3125 13.73828 5.18441 8.68087 7.35578 16.47429 5.53906 26.55859-2.08791 7.87265-5.75056 14.56339-12.41406 19.37891-2.40909 1.86903-3.04561 2.59667-3.56641 5.65234.004 2.50832.13166 4.92234.44141 7.41016 1.19625.55687 2.3925 1.11375 3.625 1.6875 8.66734 4.39471 14.26085 10.67478 17.6875 19.8125.6875 3.5.6875 3.5.73828 5.79297.0749 2.416.19166 4.40745.94922 6.70703 1.86926 1.47479 3.67278 2.2441 5.87891 3.12891 6.63218 2.72371 10.88905 8.69907 14.12109 14.87109 3.32409 9.64213 3.83824 20.24467-.5625 29.5625-4.50399 7.77387-9.91404 13.28284-18.4375 16.4375-.66.0-1.32.0-2 0 .10441.98227.10441.98227.21094 1.98437.54104 9.12041-2.28579 16.03302-7.92188 23.1875-5.80998 6.15175-13.03901 10.28741-21.55078 11.16407-8.62419.0983-16.81192-.5944-23.89844-5.97657-1.76882-1.59879-1.76882-1.59879-4.15234-1.29687-2.87179 1.00179-5.26686 2.30394-7.84375 3.90234-7.08539 3.97803-14.92444 4.2615-22.84375 3.03516-9.67874-2.74744-17.17894-8.52542-22.26563-17.14453-4.50518-8.55033-5.33625-18.58912-2.54687-27.92578 3.58761-8.52057 9.95513-15.54516 18.25-19.61719 2.73378-1.04598 2.73378-1.04598 3.4375-3.5.0412-.59813.0825-1.19625.125-1.8125-.825-.20625-1.65-.4125-2.5-.625-8.39794-3.29919-14.54627-9.41181-18.53516-17.46484-3.19904-8.22825-3.42205-18.69927.0352-26.91016 3.64128-6.87532 8.9171-13.45855 16-17-.61746-.25652-1.23492-.51305-1.87109-.77734-9.95484-4.50013-16.99126-11.05093-21.12891-21.22266-2.65843-8.54623-1.61141-18.50229 2.1875-26.5 2.97849-5.43899 5.96796-8.90951 11.27344-12.14844.50789-.44601 1.01578-.89203 1.53906-1.35156.0-1.32.0-2.64.0-4-.62906-.14695-1.25813-.29391-1.90625-.44531-10.08479-2.6427-16.96274-8.16317-23.09375-16.55469-4.42584-7.84654-5.52627-17.40128-3.16406-26.0664 3.12611-8.21393 7.78882-15.01677 15.16406-19.9336.22997-2.67009.31308-5.20472.3125-7.875.29939-9.92182 3.18765-17.64672 10-25.0625 11.09198-10.05902 28.62798-13.34038 41.6875-5.0625zm-28 24c-1.53215 3.0643-1.22939 5.61657-1 9 1.79117 4.14799 3.83493 6.24142 8 8 5.13984.70228 5.13984.70228 9.8125-1.05468 2.86479-2.32764 4.97732-4.19155 5.42578-7.9336.12973-4.06242.13605-6.38338-1.98828-9.94922-3.28894-3.01486-5.12483-3.89266-9.5625-4.5625-4.91189.66602-7.39644 2.91145-10.6875 6.5zm33.71094 29.95703c-1.73171 2.06777-3.5006 3.51311-5.71094 5.04297.80514 3.80612 1.52814 6.44235 4.0625 9.4375 4.05929 2.1592 7.43038 2.24143 11.9375 1.5625 3.90296-1.66083 5.40185-3.14358 7-7 .52218-3.07263.55814-5.93022.0-9-2.27127-3.02409-2.27127-3.02409-5-5-.33-.33-.66-.66-1-1-5.97728-1.28084-7.89763 1.58639-11.28906 5.95703zm-47.52344 4.79297c-2.75113 2.82974-3.13826 3.59752-3.4375 7.5625.32376 4.77542 1.74599 7.00995 4.875 10.5 3.7239 1.86196 7.29548 1.72658 11.375 1.1875 2.89729-1.23289 4.39683-2.2245 6.3125-4.6875 1.03471-3.48038.80828-6.68906.6875-10.3125-2.72051-.9972-5.4425-1.98816-8.17188-2.96093-2.09715-.77051-4.16147-1.63166-6.20312-2.53907-2.78919-.83859-2.78919-.83859-5.4375 1.25zm27.69922 35.08985c-2.18275 2.08829-2.18275 2.08829-2.26172 5.34765 1.92622 3.94001 4.41559 6.8328 8.375 8.8125 4.2339.40711 6.51588.25576 10.3125-1.75 3.17935-2.61777 3.17935-2.61777 4.6875-6.25.0777-2.33203.0897-4.66839.0-7-1.95649-.83764-3.91526-1.66999-5.875-2.5-1.09055-.46406-2.18109-.92812-3.30469-1.40625-5.64783-2.19029-7.77616.95019-11.93359 4.7461zm34.41406 25.55859c-2.0515 2.52587-4.53189 3.92734-7.30078 5.60156.17527 4.46929.58046 6.51906 3.5625 9.9375 3.09137 2.23884 5.69854 2.7416 9.47656 2.48828 4.02606-.87418 6.87756-2.99769 9.33594-6.23828 1.23745-4.33108 1.22249-7.90715-.6875-12-2.2361-2.89865-3.94488-4.05835-7.5625-4.6875-3.75209.60033-4.64435 1.90201-6.82422 4.89844zm-50.11328 6.41406c-2.64752 3.85781-2.90352 6.21746-2.69141 10.80859.75891 3.58273 2.65039 5.22137 5.50391 7.37891.33.33.66.66 1 1 4.78574.54061 8.74961.70335 13-1.6875 2.97544-3.44035 4.05407-5.72153 3.89844-10.30078-.60283-3.21177-.60283-3.21177-3.44532-4.65625-1.05703-.38543-2.11406-.77086-3.20312-1.16797-1.04672-.39832-2.09344-.79664-3.17188-1.20703-5.63434-2.12323-5.63434-2.12323-10.89062-.16797zm28.69922 34.95703c-2.24392 2.22554-2.24392 2.22554-2.26172 5.98047 1.66493 3.9353 2.55145 5.29921 6.375 7.25 4.83491.85417 9.41423.94825 13.5625-1.9375 3.15989-3.97012 3.41588-7.10092 3.4375-12.0625-1.95649-.83764-3.91526-1.66999-5.875-2.5-1.09055-.46406-2.18109-.92813-3.30469-1.40625-5.62481-2.18137-7.77914.89596-11.93359 4.67578zM345.402 450.10132c-1.7287 3.4574-1.48967 7.21976-1 11 1.79394 2.8703 2.98263 4.49132 6 6 4.81661.60641 9.48695.95502 13.5625-2 3.15686-3.88537 3.27039-6.07034 3.4375-11-.75926-.39832-1.51852-.79664-2.30078-1.20703-.99387-.52981-1.98774-1.05961-3.01172-1.60547-.98613-.52207-1.97227-1.04414-2.98828-1.58203-2.33387-1.38817-3.83279-2.69309-5.69922-4.60547-3.50241.0-5.49854 2.76466-8 5zm56.28906-3.89063c-.54914.54141-1.09828 1.08282-1.66406 1.64063-2.98962 2.77654-5.8599 4.59703-9.625 6.25-.32471 4.13998-.43044 6.33999 1.875 9.875 3.01647 3.01647 4.77147 3.31883 8.9375 3.4375 3.565-.0411 5.00821-.21165 8.1875-2 3.1734-3.66924 4.02461-5.93423 3.9375-10.8125-1.12536-4.20134-2.55239-5.8234-5.9375-8.5-2.49662-1.02655-3.39798-1.39035-5.71094.10937zm21.77344 35.01563c-.48598.47051-.97195.94102-1.47266 1.42578-2.57321 2.34561-5.53589 3.80009-8.58984 5.44922-.32471 4.13998-.43044 6.33999 1.875 9.875 2.98084 2.98084 4.75571 3.33772 8.875 3.5 3.74104-.0217 5.9067-.34617 8.8125-2.75 2.826-3.04338 3.3558-3.77535 3.75-7.875-.37327-4.4792-1.34947-6.3971-4.3125-9.75-4.01548-2.35691-5.09934-2.65154-8.9375.125zm-56.0625 6.875c-1.16683 3.54412-1.16683 3.54412.0 7 1.79562 2.75329 3.05255 4.52627 6 6 4.81661.60641 9.48695.95502 13.5625-2 3.15686-3.88537 3.27039-6.07034 3.4375-11-1.78882-1.00509-3.58115-2.00393-5.375-3-.99773-.55688-1.99547-1.11375-3.02344-1.6875-5.49334-2.77141-10.22895 1.10133-14.60156 4.6875zm-22 30c-1.7287 3.4574-1.48967 7.21976-1 11 1.79394 2.8703 2.98263 4.49132 6 6 4.81661.60641 9.48695.95502 13.5625-2 3.15686-3.88537 3.27039-6.07034 3.4375-11-.75926-.39832-1.51852-.79664-2.30078-1.20703-.99387-.52981-1.98774-1.05961-3.01172-1.60547-.98613-.52207-1.97227-1.04414-2.98828-1.58203-2.33387-1.38817-3.83279-2.69309-5.69922-4.60547-3.50241.0-5.49854 2.76466-8 5zm45 4c-1.16683 3.54412-1.16683 3.54412.0 7 1.79562 2.75329 3.05255 4.52627 6 6 4.09157.51513 8.23589.94367 11.95703-1.04688 2.13613-1.76711 3.79746-3.4621 5.04297-5.95312.04-1.9996.0435-4.00047.0-6-1.78882-1.00509-3.58115-2.00393-5.375-3-.99773-.55688-1.99547-1.11375-3.02344-1.6875-5.49334-2.77141-10.22895 1.10133-14.60156 4.6875z" inkscape:connector-curvature="0"/></g></svg>