<svg
        xmlns="http://www.w3.org/2000/svg" xmlns:sodipodi="http://sodipodi.sourceforge.net/DTD/sodipodi-0.dtd"
        xmlns:inkscape="http://www.inkscape.org/namespaces/inkscape" viewBox="0 0 800 200" id="svg20"
        sodipodi:docname="fiber.svg" width="800" height="200" inkscape:version="0.92.3 (2405546, 2018-03-11)">
    <defs id="defs24"/>
    <sodipodi:namedview pagecolor="#ffffff" bordercolor="#666666" borderopacity="1" objecttolerance="10"
                        gridtolerance="10" guidetolerance="10" inkscape:pageopacity="0" inkscape:pageshadow="2"
                        inkscape:window-width="1366" inkscape:window-height="705" id="namedview22" showgrid="false"
                        inkscape:zoom=".4625" inkscape:cx="400" inkscape:cy="150" inkscape:window-x="0"
                        inkscape:window-y="30" inkscape:window-maximized="1" inkscape:current-layer="svg20"/>
    <g id="g37" transform="translate(0,48.54)">
        <g transform="translate(0,-100)" style="fill:#333" id="g12">
            <path inkscape:connector-curvature="0" id="path2"
                  d="m239.25 69.58h117.84l-5.74 33.89h-76.11l-5.73 35.4h68.61l-5.73 34h-68.61l-11.47 69.37h-41.72z"/>
            <path inkscape:connector-curvature="0" id="path4"
                  d="m359 112.74h41.22l-21.54 129.47h-41.22zm5-34.89c1.7-10.85 12.41-19.64 24-19.64s19.85 8.79 18.41 19.64-12.22 19.72-23.85 19.72-20.14-8.94-18.56-19.72z"/>
            <path inkscape:connector-curvature="0" id="path6"
                  d="m421.61 69.58h41.21l-10.7 65.33H453c6.74-11.89 20.15-23.85 40.63-23.85 27.06.0 48 20.82 40.37 66.5-7.25 44.08-34.22 66.5-62.88 66.5-19.55.0-29.33-10.87-32.36-22.84h-1.61l-3.37 21H393zM462.32 212c15.17.0 26-13.57 29.33-34.47s-2.7-34.23-18-34.23c-15.09.0-26.13 13.07-29.5 34.23-3.41 20.93 3.08 34.47 18.17 34.47z"/>
            <path inkscape:connector-curvature="0" id="path8"
                  d="m538.79 178c6.65-40.12 36.32-66.92 75.35-66.92 36.75.0 58.67 23.51 51.59 66.08l-1.61 10.28H577.9l-.26 1.52c-2.61 16.44 5.14 26 21.24 26 10.71.0 20-4.55 24.7-13.23l37.59 1.09c-9.18 25.46-33.88 41.89-68 41.89-40.65-.06-61.38-25.34-54.38-66.71zm90.86-14.5c2.11-13.23-5.82-22.67-19.3-22.67-13.32.0-25.12 9.86-28.07 22.67z"/>
            <path inkscape:connector-curvature="0" id="path10"
                  d="m685.8 112.74h40l-4 23.6h1.35C730.82 119.23 743.54 111 757.7 111a49 49 0 0111.3 1.4l-6.07 35.91c-3.79-1.43-10.79-2.19-15.93-2.19-14.58.0-27.23 10.37-29.92 25.79l-11.64 70.3h-41.21z"/>
        </g>
        <path style="fill:#00acd7" inkscape:connector-curvature="0" id="path14"
              d="M213.77 15.41H79.26L68.5 30.68 211.28 30.6z"/>
        <path style="fill:#00acd7" inkscape:connector-curvature="0" id="path16"
              d="M209.02 47.06H34.95L23.88 62.27 206.53 62.14z"/>
        <path style="fill:#00acd7" inkscape:connector-curvature="0" id="path18"
              d="M204.27 78.7H129.9l-10 15.27 81.88-.06z"/>
    </g>
</svg>